<svg width="32" height="32" viewBox="0 0 32 32" fill="none" xmlns="http://www.w3.org/2000/svg">
<path d="M0 4C0 1.79086 1.79086 0 4 0H28C30.2091 0 32 1.79086 32 4V28C32 30.2091 30.2091 32 28 32H4C1.79086 32 0 30.2091 0 28V4Z" fill="#00B8DB" fill-opacity="0.2"/>
<path d="M21.4528 14.0843C21.3475 13.979 21.2001 13.9159 21.0528 13.9159H18.0844V10.9474C18.0844 10.6527 17.8107 10.379 17.5159 10.379H14.5054C14.1896 10.379 13.937 10.6317 13.937 10.9474V13.9159H10.9686C10.6528 13.9159 10.4001 14.1685 10.4001 14.4843V17.4948C10.4001 17.6422 10.4633 17.7896 10.5686 17.8948C10.6738 18.0001 10.8212 18.0632 10.9686 18.0632H13.937V21.0527C13.937 21.2001 14.0001 21.3475 14.1054 21.4527C14.2107 21.558 14.358 21.6211 14.5054 21.6211H17.5159C17.8317 21.6211 18.0844 21.3685 18.0844 21.0527V18.0843H21.0528C21.3686 18.0843 21.6212 17.8317 21.6212 17.5159V14.5053C21.6212 14.3369 21.558 14.1896 21.4528 14.0843ZM20.4844 16.9474H17.5159C17.2001 16.9474 16.9475 17.2001 16.9475 17.5159V20.4843H15.0528V17.5159C15.0528 17.3685 14.9896 17.2211 14.8844 17.1159C14.7791 17.0106 14.6317 16.9474 14.4844 16.9474H11.5159V15.0527H14.4844C14.8001 15.0527 15.0528 14.8001 15.0528 14.4843V11.5159H16.9475V14.4843C16.9475 14.8001 17.2001 15.0527 17.5159 15.0527H20.4844V16.9474Z" fill="#00B8DB"/>
<path d="M16 6C10.4842 6 6 10.4842 6 16C6 21.5158 10.4842 26 16 26C21.5158 26 26 21.5158 26 16C26 10.4842 21.5158 6 16 6ZM16 24.8632C11.1158 24.8632 7.13684 20.8842 7.13684 16C7.13684 11.1158 11.1158 7.13684 16 7.13684C20.8842 7.13684 24.8632 11.1158 24.8632 16C24.8632 20.8842 20.8842 24.8632 16 24.8632Z" fill="#00B8DB"/>
</svg>
