<svg width="32" height="32" viewBox="0 0 32 32" fill="none" xmlns="http://www.w3.org/2000/svg">
<path d="M0 4C0 1.79086 1.79086 0 4 0H28C30.2091 0 32 1.79086 32 4V28C32 30.2091 30.2091 32 28 32H4C1.79086 32 0 30.2091 0 28V4Z" fill="#F3CC36" fill-opacity="0.2"/>
<path d="M9.45455 13.2271C9.25371 13.2271 9.09091 13.3898 9.09091 13.5906V20.8621C9.09091 21.0629 9.25371 21.2256 9.45455 21.2256H22.5455C22.7463 21.2256 22.9091 21.0629 22.9091 20.8621V13.5906C22.9091 13.3898 22.7463 13.2271 22.5455 13.2271H9.45455ZM9.45455 12.1364H22.5455C23.3488 12.1364 24 12.7875 24 13.5906V20.8621C24 21.6652 23.3488 22.3164 22.5455 22.3164H9.45455C8.65122 22.3164 8 21.6652 8 20.8621V13.5906C8 12.7875 8.65122 12.1364 9.45455 12.1364Z" fill="#F3CC36"/>
<path d="M12.7271 12.1364H19.2726V11.0455C19.2726 10.8447 19.1098 10.6819 18.909 10.6819H13.0908C12.8899 10.6819 12.7271 10.8447 12.7271 11.0455V12.1364ZM13.0908 9.59094H18.909C19.7123 9.59094 20.3635 10.2422 20.3635 11.0455V13.2273H11.6362V11.0455C11.6362 10.2422 12.2875 9.59094 13.0908 9.59094Z" fill="#F3CC36"/>
</svg>
