<svg width="32" height="32" viewBox="0 0 32 32" fill="none" xmlns="http://www.w3.org/2000/svg">
<path d="M0 4C0 1.79086 1.79086 0 4 0H28C30.2091 0 32 1.79086 32 4V28C32 30.2091 30.2091 32 28 32H4C1.79086 32 0 30.2091 0 28V4Z" fill="#2DB47D" fill-opacity="0.2"/>
<path d="M15.21 23.5893L14.776 23.2243C14.55 23.0378 9.252 18.5741 7.896 15.7187C7.66484 15.2145 7.53698 14.669 7.52 14.1145C7.4989 13.2236 7.709 12.3425 8.12973 11.5575C8.55045 10.7726 9.16736 10.1107 9.92 9.63672C11.448 8.70829 13.348 8.80053 15.276 9.8954C17.2 8.80053 19.104 8.70829 20.64 9.62669C21.3919 10.1009 22.0083 10.7626 22.429 11.5471C22.8496 12.3315 23.0602 13.212 23.04 14.1024C23.0265 14.6615 22.8978 15.2118 22.662 15.7187C21.298 18.5782 15.88 23.0378 15.65 23.2384L15.21 23.5893ZM12.21 10.3747C11.6471 10.3687 11.0934 10.5186 10.61 10.8078C10.0698 11.1571 9.6276 11.6391 9.3255 12.2081C9.02341 12.777 8.87143 13.4139 8.884 14.0583C8.8862 14.1536 8.89355 14.2486 8.906 14.3431C8.93778 14.6146 9.01273 14.8793 9.128 15.1271C10.146 17.2727 13.928 20.6696 15.212 21.7946C16.526 20.6757 20.39 17.2707 21.412 15.1271C21.5663 14.7916 21.6501 14.4277 21.658 14.0583C21.6708 13.414 21.5193 12.7772 21.218 12.208C20.9166 11.6388 20.4754 11.1562 19.936 10.8058C18.828 10.144 17.456 10.2423 15.958 11.0885L15.276 11.7884L14.6 11.0905C13.878 10.6498 13.0548 10.4032 12.21 10.3747Z" fill="#2DB47D"/>
<path d="M13.338 18.0046L12.478 15.1752L11.97 16.3002H6.49C6.36004 16.3002 6.23541 16.2484 6.14352 16.1563C6.05162 16.0641 6 15.9392 6 15.8089C6 15.6786 6.05162 15.5536 6.14352 15.4615C6.23541 15.3693 6.36004 15.3176 6.49 15.3176H11.338L12.658 12.3939L13.63 15.6023L15.4 12.6325L16.4 15.482L18.106 13.2762L19.464 14.8062H25.51C25.64 14.8062 25.7646 14.858 25.8565 14.9501C25.9484 15.0423 26 15.1672 26 15.2975C26 15.4278 25.9484 15.5528 25.8565 15.6449C25.7646 15.7371 25.64 15.7888 25.51 15.7888H19.016L18.15 14.8163L16.066 17.5133L15.162 14.9386L13.338 18.0046Z" fill="#2DB47D"/>
</svg>
