<svg width="20" height="20" viewBox="0 0 20 20" fill="none" xmlns="http://www.w3.org/2000/svg">
<circle cx="10" cy="10" r="10" fill="#1D80FF"/>
<path d="M10 20C15.5172 20 20 15.5172 20 10C20 4.48276 15.5172 0 10 0C4.48276 0 0 4.48276 0 10C0 15.5172 4.48276 20 10 20ZM4.48276 16.313C5.9947 14.5093 7.95756 13.5279 10 13.5279C12.0424 13.5279 14.0053 14.5093 15.5172 16.313C14.0584 17.6127 12.122 18.4085 10 18.4085C7.87799 18.4085 5.94165 17.6127 4.48276 16.313ZM10 1.59151C14.6419 1.59151 18.4085 5.35809 18.4085 10C18.4085 11.9363 17.7454 13.7401 16.6313 15.1459C14.8011 13.0769 12.4934 11.9363 10 11.9363C7.50663 11.9363 5.19894 13.0769 3.3687 15.1459C2.25464 13.7135 1.59151 11.9363 1.59151 10C1.59151 5.35809 5.35809 1.59151 10 1.59151Z" fill="white"/>
<path d="M10.0001 11.1406C12.2282 11.1406 14.0319 9.33685 14.0319 7.10873C14.0319 4.88062 12.2282 3.0769 10.0001 3.0769C7.77198 3.0769 5.96826 4.88062 5.96826 7.10873C5.96826 9.33685 7.77198 11.1406 10.0001 11.1406ZM10.0001 4.66842C11.3529 4.66842 12.4404 5.75595 12.4404 7.10873C12.4404 8.46152 11.3529 9.54905 10.0001 9.54905C8.64731 9.54905 7.55977 8.46152 7.55977 7.10873C7.55977 5.78247 8.64731 4.66842 10.0001 4.66842Z" fill="white"/>
</svg>
