<svg width="13" height="13" viewBox="0 0 13 13" fill="none" xmlns="http://www.w3.org/2000/svg">
<path d="M12.6275 6.34961C12.4206 6.34961 12.2551 6.51515 12.2551 6.72207V10.11C12.2551 11.0315 11.5047 11.7792 10.586 11.7792H2.41405C1.49257 11.7792 0.744907 11.0287 0.744907 10.11V6.66689C0.744907 6.45997 0.579372 6.29443 0.372453 6.29443C0.165535 6.29443 0 6.45997 0 6.66689V10.11C0 11.4426 1.08425 12.5241 2.41405 12.5241H10.586C11.9185 12.5241 13 11.4398 13 10.11V6.72207C13 6.51791 12.8345 6.34961 12.6275 6.34961Z" fill="#1D80FF"/>
<path d="M6.23787 9.56651C6.30961 9.63824 6.40617 9.67687 6.49997 9.67687C6.59377 9.67687 6.69034 9.641 6.76207 9.56651L9.12922 7.19936C9.27544 7.05314 9.27544 6.81863 9.12922 6.67241C8.98299 6.52619 8.74849 6.52619 8.60226 6.67241L6.87242 8.40501V0.848344C6.87242 0.641426 6.70689 0.475891 6.49997 0.475891C6.29305 0.475891 6.12752 0.641426 6.12752 0.848344V8.40501L4.39492 6.67241C4.2487 6.52619 4.01419 6.52619 3.86797 6.67241C3.72175 6.81863 3.72175 7.05314 3.86797 7.19936L6.23787 9.56651Z" fill="#1D80FF"/>
</svg>
