<svg width="22" height="22" viewBox="0 0 22 22" fill="none" xmlns="http://www.w3.org/2000/svg">
<path d="M20.1329 0.988461C18.8148 -0.329487 16.6779 -0.329487 15.3599 0.988461L1.97942 14.3677C1.88772 14.4594 1.82151 14.5731 1.78694 14.6979L0.0273682 21.0497C-0.044995 21.3102 0.02854 21.5891 0.219555 21.7803C0.410864 21.9713 0.68977 22.0449 0.950219 21.9728L7.30265 20.2131C7.42746 20.1785 7.54113 20.1123 7.63283 20.0206L21.013 6.64108C22.329 5.32225 22.329 3.18729 21.013 1.86846L20.1329 0.988461ZM3.6136 14.8552L14.5645 3.905L18.0962 7.43642L7.14504 18.3866L3.6136 14.8552ZM2.90813 16.2707L5.72971 19.0923L1.82678 20.1736L2.90813 16.2707ZM19.9524 5.58063L19.157 6.37597L15.625 2.84425L16.4207 2.04891C17.1528 1.31685 18.3399 1.31685 19.0721 2.04891L19.9524 2.92891C20.6834 3.66185 20.6834 4.84798 19.9524 5.58063Z" fill="#1D80FF"/>
</svg>
