<svg width="25" height="25" viewBox="0 0 25 25" fill="none" xmlns="http://www.w3.org/2000/svg">
<path d="M22.8783 1.12325C21.3805 -0.374417 18.9522 -0.374417 17.4544 1.12325L2.24934 16.327C2.14513 16.4312 2.06989 16.5603 2.03061 16.7021L0.0311002 23.9202C-0.0511307 24.2161 0.0324318 24.533 0.249495 24.7504C0.466891 24.9674 0.783829 25.051 1.07979 24.9691L8.29847 22.9694C8.44029 22.9302 8.56947 22.8549 8.67367 22.7507L23.8784 7.54668C25.3739 6.04801 25.3739 3.62192 23.8784 2.12325L22.8783 1.12325ZM4.10636 16.8809L16.5505 4.4375L20.5639 8.45047L8.11936 20.8939L4.10636 16.8809ZM3.30469 18.4894L6.51103 21.6958L2.07589 22.9245L3.30469 18.4894ZM22.6732 6.34162L21.7694 7.24542L17.7557 3.2321L18.6599 2.32831C19.4919 1.49642 20.8408 1.49642 21.6728 2.32831L22.6732 3.32831C23.5039 4.1612 23.5039 5.50907 22.6732 6.34162Z" fill="white"/>
</svg>
