<svg width="16" height="16" viewBox="0 0 16 16" fill="none" xmlns="http://www.w3.org/2000/svg">
<path d="M14.6766 10.1026C14.5108 10.0479 14.3307 10.0564 14.1709 10.1265C14.0111 10.1966 13.8829 10.3234 13.811 10.4824C13.1915 11.833 12.1212 12.9258 10.7839 13.5733C9.44657 14.2209 7.92557 14.3828 6.4819 14.0313C5.84577 13.8741 5.23793 13.619 4.6801 13.2752L5.84243 12.4679C5.88944 12.4354 5.92703 12.391 5.95139 12.3392C5.97576 12.2875 5.98604 12.2303 5.9812 12.1733C5.97636 12.1163 5.95658 12.0616 5.92384 12.0147C5.8911 11.9678 5.84657 11.9304 5.79474 11.9062L1.71419 9.98782C1.66281 9.96359 1.60598 9.95324 1.54935 9.95781C1.49273 9.96239 1.43829 9.98172 1.39147 10.0139C1.34464 10.0461 1.30707 10.0899 1.28249 10.1412C1.25791 10.1924 1.24718 10.2491 1.25138 10.3058L1.6294 14.7997C1.63449 14.8565 1.65437 14.911 1.68706 14.9578C1.71975 15.0046 1.76412 15.0419 1.81575 15.0662C1.86737 15.0905 1.92446 15.1009 1.98133 15.0963C2.03821 15.0917 2.09288 15.0722 2.13991 15.0399L3.44357 14.132C3.46363 14.1538 3.4855 14.1739 3.50893 14.192C4.30432 14.7547 5.19745 15.1644 6.14273 15.4003C6.5151 15.4969 6.89419 15.5654 7.27681 15.6052C8.89013 15.7497 10.5086 15.3903 11.9091 14.5766C13.3097 13.7629 14.4234 12.5349 15.097 11.0618C15.1373 10.9718 15.1584 10.8743 15.1588 10.7757C15.1593 10.677 15.139 10.5794 15.0994 10.489C15.0598 10.3987 15.0017 10.3176 14.9289 10.2511C14.8561 10.1845 14.7701 10.134 14.6766 10.1026Z" fill="#FCFCFC"/>
<path d="M2.1506 5.94791C2.50462 5.16299 3.01434 4.45815 3.64888 3.87611C4.28342 3.29406 5.02955 2.84694 5.84204 2.56185C6.65453 2.27676 7.51645 2.15964 8.37555 2.21759C9.23465 2.27554 10.073 2.50735 10.8399 2.89898L9.74643 3.79458C9.70258 3.83102 9.66903 3.87831 9.64911 3.93173C9.6292 3.98516 9.6236 4.04287 9.63289 4.09912C9.64218 4.15538 9.66602 4.20823 9.70205 4.25241C9.73808 4.2966 9.78505 4.3306 9.83829 4.35102L14.0602 5.94084C14.1132 5.96054 14.1704 5.96605 14.2262 5.95685C14.282 5.94764 14.3345 5.92403 14.3784 5.88835C14.4223 5.85267 14.4561 5.80615 14.4765 5.75339C14.4969 5.70064 14.5032 5.64347 14.4947 5.58755L13.7616 1.13604C13.7526 1.07924 13.7286 1.02586 13.6922 0.98134C13.6558 0.936825 13.6082 0.902771 13.5543 0.882655C13.5004 0.862538 13.4422 0.85708 13.3855 0.866837C13.3288 0.876595 13.2757 0.901218 13.2317 0.938194L11.9951 1.94508C11.9704 1.92742 11.9492 1.90799 11.9245 1.89209C10.9842 1.33344 9.93675 0.979201 8.85041 0.852446C7.76406 0.72569 6.66319 0.829267 5.61955 1.15643C4.57591 1.48358 3.61291 2.02698 2.79333 2.75121C1.97374 3.47543 1.31596 4.36423 0.862847 5.35967C0.821947 5.45009 0.800553 5.54811 0.800058 5.64735C0.799563 5.74659 0.819978 5.84482 0.859974 5.93565C0.89997 6.02647 0.958649 6.10785 1.03219 6.17449C1.10573 6.24112 1.19248 6.29152 1.2868 6.3224C1.45164 6.37703 1.63083 6.36905 1.79016 6.29998C1.94949 6.2309 2.0778 6.10557 2.1506 5.94791Z" fill="#FCFCFC"/>
</svg>
