<svg width="96" height="96" viewBox="0 0 96 96" fill="none" xmlns="http://www.w3.org/2000/svg">
<circle cx="48" cy="48" r="48" fill="#EDF0F3"/>
<mask id="mask0" mask-type="alpha" maskUnits="userSpaceOnUse" x="0" y="0" width="96" height="96">
<circle cx="48" cy="48" r="48" fill="#E7D5D5"/>
</mask>
<g mask="url(#mask0)">
<path d="M22.8599 61.6706C22.8599 66.4036 22.8599 71.6143 20.1011 74.7098C18.9989 75.9466 19.3361 77.8907 20.7643 78.7299C28.0316 82.9991 36.9031 84.8961 48.2393 84.8961C59.5755 84.8961 68.4469 82.9991 75.7142 78.7299C77.1426 77.8907 77.4798 75.9464 76.3775 74.7098C73.6186 71.6143 73.6186 66.4038 73.6186 61.6706C73.6186 47.023 62.2334 35.1062 48.2393 35.1062C34.2451 35.1062 22.8599 47.0228 22.8599 61.6706Z" fill="#495059"/>
<path d="M25.348 65.7019C27.5744 65.7019 29.3793 63.897 29.3793 61.6706C29.3793 59.4442 27.5744 57.6393 25.348 57.6393C23.1215 57.6393 21.3167 59.4442 21.3167 61.6706C21.3167 63.897 23.1215 65.7019 25.348 65.7019Z" fill="#F5D7B7"/>
<path opacity="0.15" d="M25.348 65.7019C27.5744 65.7019 29.3793 63.897 29.3793 61.6706C29.3793 59.4442 27.5744 57.6393 25.348 57.6393C23.1215 57.6393 21.3167 59.4442 21.3167 61.6706C21.3167 63.897 23.1215 65.7019 25.348 65.7019Z" fill="black"/>
<path d="M71.1304 65.7019C73.3569 65.7019 75.1618 63.897 75.1618 61.6706C75.1618 59.4442 73.3569 57.6393 71.1304 57.6393C68.904 57.6393 67.0991 59.4442 67.0991 61.6706C67.0991 63.897 68.904 65.7019 71.1304 65.7019Z" fill="#F5D7B7"/>
<path opacity="0.15" d="M71.1304 65.7019C73.3569 65.7019 75.1618 63.897 75.1618 61.6706C75.1618 59.4442 73.3569 57.6393 71.1304 57.6393C68.904 57.6393 67.0991 59.4442 67.0991 61.6706C67.0991 63.897 68.904 65.7019 71.1304 65.7019Z" fill="black"/>
<path d="M66.2834 101.001C67.2321 101.001 67.9885 100.191 67.9052 99.2464C67.0175 89.1645 58.5516 81.2578 48.2392 81.2578C37.9267 81.2578 29.4608 89.1644 28.5729 99.2463C28.4897 100.191 29.246 101.001 30.1947 101.001H66.2834V101.001Z" fill="#7FDBD5"/>
<path opacity="0.1" d="M60.6372 95.6498H56.3853C55.7865 95.6498 55.3013 95.1644 55.3013 94.5658C55.3013 93.9671 55.7865 93.4818 56.3853 93.4818H60.6372C61.236 93.4818 61.7212 93.9671 61.7212 94.5658C61.7212 95.1644 61.236 95.6498 60.6372 95.6498Z" fill="black"/>
<path d="M40.7241 82.7399L46.6464 94.2018C47.3146 95.4949 49.1634 95.4957 49.8315 94.2025C51.5075 90.9588 54.124 85.8947 55.754 82.7399C53.4374 81.7855 50.9 81.2578 48.239 81.2578C45.578 81.2578 43.0407 81.7855 40.7241 82.7399Z" fill="white"/>
<path opacity="0.1" d="M48.2392 81.2578C43.8112 81.2578 39.7245 82.7166 36.4312 85.1783C39.9605 87.1283 43.9785 88.2347 48.2392 88.2347C52.4999 88.2347 56.518 87.1283 60.0473 85.1783C56.754 82.7166 52.6673 81.2578 48.2392 81.2578Z" fill="black"/>
<path d="M48.2391 85.7469C60.8816 85.7469 71.1303 74.9675 71.1303 61.6705C71.1303 48.3735 60.8816 37.5941 48.2391 37.5941C35.5966 37.5941 25.3479 48.3735 25.3479 61.6705C25.3479 74.9675 35.5966 85.7469 48.2391 85.7469Z" fill="#F5D7B7"/>
<path d="M33.8179 72.1189C36.7567 72.1189 39.1392 70.2216 39.1392 67.8812C39.1392 65.5407 36.7567 63.6434 33.8179 63.6434C30.879 63.6434 28.4966 65.5407 28.4966 67.8812C28.4966 70.2216 30.879 72.1189 33.8179 72.1189Z" fill="#F28B74"/>
<path d="M62.6609 72.1189C65.5998 72.1189 67.9822 70.2216 67.9822 67.8812C67.9822 65.5407 65.5998 63.6434 62.6609 63.6434C59.722 63.6434 57.3396 65.5407 57.3396 67.8812C57.3396 70.2216 59.722 72.1189 62.6609 72.1189Z" fill="#F28B74"/>
<path d="M36.919 64.738C36.3202 64.738 35.835 64.2527 35.835 63.654V61.7748C35.835 61.1761 36.3202 60.6908 36.919 60.6908C37.5178 60.6908 38.003 61.1761 38.003 61.7748V63.654C38.003 64.2528 37.5176 64.738 36.919 64.738Z" fill="#495059"/>
<path d="M59.5601 64.738C58.9613 64.738 58.4761 64.2527 58.4761 63.654V61.7748C58.4761 61.1761 58.9613 60.6908 59.5601 60.6908C60.1589 60.6908 60.6441 61.1761 60.6441 61.7748V63.654C60.6441 64.2528 60.1589 64.738 59.5601 64.738Z" fill="#495059"/>
<path d="M48.2395 66.181C46.7823 66.181 45.3967 65.5499 44.4377 64.4495C44.0443 63.9982 44.0914 63.3135 44.5428 62.9201C44.994 62.5268 45.6787 62.5736 46.0723 63.0252C46.6193 63.653 47.4093 64.013 48.2395 64.013C49.0697 64.013 49.8598 63.653 50.4068 63.0252C50.8001 62.5736 51.4846 62.5267 51.9363 62.9201C52.3875 63.3134 52.4346 63.9982 52.0413 64.4495C51.0824 65.55 49.6967 66.181 48.2395 66.181Z" fill="#495059"/>
<path opacity="0.05" d="M48.2393 37.5946C35.597 37.5946 25.3484 48.3738 25.3484 61.6704C25.3484 74.9672 35.597 85.7462 48.2393 85.7462C53.3754 85.7462 58.1166 83.967 61.9359 80.9627C37.8374 85.4657 31.8741 72.2497 30.896 62.1436C30.8077 61.2316 31.4221 60.4027 32.3204 60.2223C38.7303 58.9351 47.23 55.8401 53.4967 48.4684C55.3395 52.4047 63.6206 61.721 71.119 60.9443C70.7539 47.9837 60.6505 37.5946 48.2393 37.5946Z" fill="black"/>
<path d="M48.2392 36.5477C35.3457 36.5477 25.9345 49.7847 24.6794 57.0679C24.5363 57.8985 25.1604 58.6634 26.0025 58.6999C37.9912 59.2207 48.6441 53.2582 53.1246 48.6898C53.4848 48.3226 54.084 48.3571 54.405 48.7591C56.7822 51.7353 64.1282 59.0194 70.8619 59.3395C71.6713 59.3779 72.3429 58.7048 72.2882 57.8963C71.4424 45.4121 59.3578 36.5477 48.2392 36.5477Z" fill="#495059"/>
<path d="M62.0157 28.4839L59.2619 27.9869C51.9725 26.671 44.5062 26.671 37.2168 27.9869L34.463 28.4839C32.7275 28.7971 31.6258 30.5213 32.0705 32.2278L34.6702 42.2041C34.9528 43.2882 35.9048 44.0645 37.0237 44.1229L44.5703 44.517C47.0145 44.6446 49.4638 44.6446 51.908 44.517L59.4547 44.1229C60.5735 44.0645 61.5257 43.2882 61.8083 42.2041L64.408 32.2278C64.8529 30.5213 63.7511 28.7971 62.0157 28.4839Z" fill="#7FDBD5"/>
<path d="M50.1823 33.4822V30.592C50.1823 30.3268 49.9672 30.1117 49.702 30.1117H46.7766C46.5114 30.1117 46.2963 30.3268 46.2963 30.592V33.4822C46.2963 33.6928 46.1256 33.8633 45.9152 33.8633H43.025C42.7597 33.8633 42.5447 34.0784 42.5447 34.3436V37.269C42.5447 37.5342 42.7597 37.7493 43.025 37.7493H45.9152C46.1256 37.7493 46.2963 37.92 46.2963 38.1304V41.0205C46.2963 41.2857 46.5114 41.5008 46.7766 41.5008H49.702C49.9672 41.5008 50.1823 41.2857 50.1823 41.0205V38.1304C50.1823 37.92 50.353 37.7493 50.5634 37.7493H53.4535C53.7187 37.7493 53.9338 37.5342 53.9338 37.269V34.3436C53.9338 34.0784 53.7187 33.8633 53.4535 33.8633H50.5634C50.353 33.8633 50.1823 33.6927 50.1823 33.4822Z" fill="white"/>
<path opacity="0.1" d="M37.0238 44.1228L44.5705 44.517C45.3654 44.5585 46.1609 44.5851 46.9566 44.5997C39.9252 40.8515 38.7987 31.9137 40.5088 27.4872C39.4083 27.6254 38.3104 27.7894 37.2168 27.9868L34.463 28.484C32.7275 28.7972 31.6258 30.5214 32.0705 32.2279L34.6702 42.2042C34.9528 43.2882 35.905 44.0644 37.0238 44.1228Z" fill="black"/>
</g>
</svg>
