<svg width="20" height="20" viewBox="0 0 20 20" fill="none" xmlns="http://www.w3.org/2000/svg">
<path fill-rule="evenodd" clip-rule="evenodd" d="M16.196 11.8682C15.383 11.2358 14.1642 11.3129 13.4342 12.0429L12.0681 13.4089C11.8623 13.6147 11.4289 13.6718 11.1801 13.5269C11.104 13.4874 11.0401 13.4537 10.9438 13.3987C10.7755 13.3026 10.5836 13.1838 10.3726 13.0415C9.76264 12.6301 9.12889 12.1159 8.50659 11.4936C7.88424 10.8713 7.37057 10.2383 6.95998 9.62963C6.81797 9.41911 6.69946 9.22774 6.6037 9.05995C6.54893 8.96397 6.51536 8.90035 6.50225 8.87355L6.47071 8.81549C6.32491 8.57242 6.38227 8.14109 6.59128 7.93208L7.95732 6.56604C8.68713 5.83623 8.76525 4.61831 8.13201 3.80414L5.72246 0.706163C5.04369 -0.166549 3.81077 -0.241068 3.02732 0.542382L0.975938 2.59375C-1.38669 4.95638 0.810524 11.4651 4.6728 15.3274C8.53476 19.1894 15.0441 21.3866 17.4064 19.0243L19.4578 16.9729C20.2408 16.1899 20.1679 14.9574 19.294 14.2777L16.196 11.8682Z" fill="#1D80FF"/>
</svg>
