<svg width="20" height="20" viewBox="0 0 20 20" fill="none" xmlns="http://www.w3.org/2000/svg">
<path fill-rule="evenodd" clip-rule="evenodd" d="M18.3625 15.8775L16.3111 17.9289C14.7631 19.4769 9.10223 17.5661 5.76816 14.232C2.4338 10.8977 0.52302 5.23741 2.07131 3.68912L4.12269 1.63775C4.2482 1.51224 4.39377 1.52102 4.49969 1.6572L6.90924 4.7552C7.06208 4.95171 7.04022 5.2924 6.86195 5.47068L5.49591 6.83671C4.78863 7.54399 4.62768 8.75435 5.14225 9.61228L5.11071 9.5542C5.20664 9.75032 5.39253 10.0761 5.67579 10.496C6.1398 11.1838 6.7157 11.8935 7.41122 12.589C8.10677 13.2845 8.81724 13.8609 9.50635 14.3257C9.92695 14.6094 10.2533 14.7957 10.4499 14.8919L10.4008 14.8657C11.2583 15.3648 12.4612 15.2066 13.1635 14.5043L14.5295 13.1383C14.7075 12.9602 15.0491 12.9386 15.245 13.091L18.343 15.5005C18.4796 15.6067 18.4882 15.7518 18.3625 15.8775ZM16.196 11.8682C15.383 11.2358 14.1642 11.3129 13.4342 12.0429L12.0681 13.4089C11.8623 13.6147 11.4289 13.6718 11.1801 13.5269C11.104 13.4874 11.0401 13.4537 10.9438 13.3987C10.7755 13.3026 10.5836 13.1838 10.3726 13.0415C9.76264 12.6301 9.12889 12.1159 8.50659 11.4936C7.88424 10.8713 7.37057 10.2383 6.95998 9.62963C6.81797 9.41911 6.69946 9.22774 6.6037 9.05995C6.54893 8.96397 6.51536 8.90035 6.50225 8.87355L6.47071 8.81549C6.32491 8.57242 6.38227 8.14109 6.59128 7.93208L7.95732 6.56604C8.68713 5.83623 8.76525 4.61831 8.13201 3.80414L5.72246 0.706163C5.04369 -0.166549 3.81077 -0.241068 3.02732 0.542382L0.975938 2.59375C-1.38669 4.95638 0.810524 11.4651 4.6728 15.3274C8.53476 19.1894 15.0441 21.3866 17.4064 19.0243L19.4578 16.9729C20.2408 16.1899 20.1679 14.9574 19.294 14.2777L16.196 11.8682Z" fill="#CCCCCC"/>
</svg>
