<svg width="25" height="20" viewBox="0 0 25 20" fill="none" xmlns="http://www.w3.org/2000/svg">
<path d="M12.4225 0.000131867C12.2364 0.00346518 12.0474 0.0697768 11.8638 0.189525L0.348758 9.28037C0.0529537 9.57409 -0.154993 10.2065 0.149896 10.5967C0.454781 10.9868 1.09601 11.0391 1.46617 10.7103L12.4225 2.06451L23.3789 10.7103C23.7491 11.0391 24.4038 10.997 24.6952 10.5967C24.9508 10.2454 24.888 9.57318 24.4963 9.28037L12.9813 0.189525C12.7919 0.0564588 12.6087 -0.00319841 12.4225 0.000131867ZM5.14986 7.5L3.33169 8.87318V19.0909C3.33172 19.332 3.4275 19.5632 3.59798 19.7337C3.76847 19.9042 3.99968 20 4.24078 20H9.99832C10.2394 20 10.4706 19.9042 10.6411 19.7337C10.8116 19.5632 10.9074 19.332 10.9074 19.0909V15.4546C10.9074 14.5995 11.5674 13.9394 12.4225 13.9394C13.2777 13.9394 13.9377 14.5995 13.9377 15.4546V19.0909C13.9377 19.332 14.0335 19.5632 14.204 19.7337C14.3745 19.9042 14.6057 20 14.8468 20H20.6043C20.8454 20 21.0766 19.9042 21.2471 19.7337C21.4176 19.5632 21.5134 19.332 21.5134 19.0909V7.31256L19.6952 5.87318V18.1818H15.7559V15.4546C15.7559 13.6236 14.2535 12.1213 12.4225 12.1213C10.5916 12.1213 9.08923 13.6236 9.08923 15.4546V18.1818H5.14986V7.5Z" fill="#CCCCCC"/>
</svg>
