<svg width="21" height="20" viewBox="0 0 21 20" fill="none" xmlns="http://www.w3.org/2000/svg">
<path d="M17.0784 1.9334H14.9517V0.880773C14.9517 0.408163 14.565 0 14.0709 0C13.5983 0 13.1901 0.386681 13.1901 0.880773V1.9334H7.19656V0.880773C7.19656 0.408163 6.80988 0 6.31579 0C5.8217 0 5.43502 0.386681 5.43502 0.880773V1.9334H3.32975C1.48228 1.9334 0 3.43716 0 5.26316V16.6702C0 18.5177 1.50376 20 3.32975 20H17.0784C18.9259 20 20.4082 18.4962 20.4082 16.6702V5.26316C20.4082 3.43716 18.9044 1.9334 17.0784 1.9334ZM3.32975 3.67347H5.4565V4.7261C5.4565 5.19871 5.84318 5.60687 6.33727 5.60687C6.83136 5.60687 7.21804 5.22019 7.21804 4.7261V3.67347H13.2331V4.7261C13.2331 5.19871 13.6198 5.60687 14.1139 5.60687C14.5865 5.60687 14.9946 5.22019 14.9946 4.7261V3.67347H17.0784C17.9592 3.67347 18.6681 4.38238 18.6681 5.26316V7.30397H1.74006V5.26316C1.74006 4.38238 2.44898 3.67347 3.32975 3.67347ZM17.0784 18.2599H3.32975C2.44898 18.2599 1.74006 17.551 1.74006 16.6702V9.06552H18.6681V16.6702C18.6681 17.551 17.9592 18.2599 17.0784 18.2599Z" fill="#CCCCCC"/>
</svg>
